<?xml version="1.0" standalone="no"?>
<!DOCTYPE svg PUBLIC "-//W3C//DTD SVG 20010904//EN"
 "http://www.w3.org/TR/2001/REC-SVG-20010904/DTD/svg10.dtd">
<svg version="1.0" xmlns="http://www.w3.org/2000/svg"
 width="1024.000000pt" height="1024.000000pt" viewBox="0 0 1024.000000 1024.000000"
 preserveAspectRatio="xMidYMid meet">
<metadata>
Created by potrace 1.11, written by Peter Selinger 2001-2013
</metadata>
<g transform="translate(0.000000,1024.000000) scale(0.100000,-0.100000)"
fill="#000000" stroke="none">
<path d="M3238 8924 c-2 -1 -25 -5 -53 -8 -99 -13 -111 -15 -165 -29 -313 -85
-570 -252 -797 -522 -153 -181 -276 -446 -308 -661 -4 -21 -9 -50 -12 -64 -12
-58 -11 -329 2 -410 27 -174 81 -340 152 -471 2 -3 -175 -6 -394 -7 -219 0
-418 -3 -442 -7 -195 -29 -385 -204 -435 -401 -23 -88 -25 -1518 -2 -1583 30
-87 92 -148 176 -171 35 -10 933 -13 4171 -13 l4126 0 55 25 c30 14 67 38 82
54 26 27 55 74 57 91 1 5 5 18 10 31 5 13 9 356 10 762 0 820 1 804 -67 927
-37 66 -82 118 -155 176 -44 35 -139 84 -176 91 -10 2 -38 7 -63 11 -24 4
-212 7 -417 7 -205 0 -373 2 -373 4 0 3 18 47 40 98 45 107 95 278 105 357 3
30 8 68 12 84 6 31 6 252 -1 295 -2 14 -7 48 -10 75 -9 67 -51 228 -75 290
-163 420 -531 771 -947 903 -170 54 -248 66 -454 66 -285 1 -474 -40 -705
-153 -230 -113 -462 -305 -721 -596 -89 -100 -265 -316 -306 -375 l-17 -25
-28 32 c-15 17 -53 64 -83 103 -221 288 -495 567 -715 727 -172 124 -406 228
-585 258 -19 3 -47 8 -62 11 -98 16 -169 22 -290 21 -76 0 -139 -1 -140 -3z
m304 -829 c185 -39 343 -125 502 -275 103 -97 331 -381 511 -635 124 -175 284
-419 280 -425 -3 -5 -353 -7 -777 -5 -858 2 -844 1 -979 69 -267 134 -409 412
-364 716 40 268 287 519 555 563 61 10 205 6 272 -8z m3562 -15 c38 -12 86
-33 107 -46 21 -13 42 -24 45 -24 7 0 69 -49 109 -86 79 -73 151 -198 182
-314 26 -98 23 -285 -6 -376 -85 -264 -290 -437 -560 -473 -35 -4 -398 -8
-807 -8 l-743 -1 11 21 c10 20 131 198 150 222 5 6 52 71 105 145 222 313 385
512 558 685 201 202 257 237 435 271 103 20 329 12 414 -16z"/>
<path d="M1333 4032 l-21 -3 -1 -1112 c0 -1186 -1 -1167 48 -1277 60 -137 203
-262 349 -307 53 -17 145 -18 1462 -18 l1405 0 0 1358 1 1357 -31 1 c-124 2
-3195 3 -3212 1z"/>
<path d="M5695 4032 l-31 -3 1 -1357 0 -1357 1395 -1 c1520 -1 1441 -4 1560
56 105 53 207 156 254 257 58 120 56 71 53 1287 l-2 1119 -1600 1 c-880 1
-1614 0 -1630 -2z"/>
</g>
</svg>
